<mxfile host="app.diagrams.net" modified="2023-06-09T19:33:00.440Z" agent="Mozilla/5.0 (iPhone; CPU iPhone OS 16_0 like Mac OS X) AppleWebKit/605.1.15 (KHTML, like Gecko) CriOS/109.0.5414.83 Mobile/15E148 Safari/604.1" etag="yTpKz5lRv_oFlqo4zY4U" version="21.3.8" type="github" pages="2">
  <diagram id="C5RBs43oDa-KdzZeNtuy" name="Page-1">
    <mxGraphModel dx="950" dy="1493" grid="1" gridSize="10" guides="1" tooltips="1" connect="1" arrows="1" fold="1" page="1" pageScale="1" pageWidth="827" pageHeight="1169" math="0" shadow="0">
      <root>
        <mxCell id="WIyWlLk6GJQsqaUBKTNV-0" />
        <mxCell id="WIyWlLk6GJQsqaUBKTNV-1" parent="WIyWlLk6GJQsqaUBKTNV-0" />
        <mxCell id="WIyWlLk6GJQsqaUBKTNV-2" value="" style="rounded=0;html=1;jettySize=auto;orthogonalLoop=1;fontSize=11;endArrow=block;endFill=0;endSize=8;strokeWidth=1;shadow=0;labelBackgroundColor=none;edgeStyle=orthogonalEdgeStyle;" parent="WIyWlLk6GJQsqaUBKTNV-1" source="WIyWlLk6GJQsqaUBKTNV-3" edge="1">
          <mxGeometry relative="1" as="geometry">
            <mxPoint x="220" y="170" as="targetPoint" />
          </mxGeometry>
        </mxCell>
        <mxCell id="7dVqmLgqVfzrDcxjJTKj-1" value="" style="edgeStyle=none;curved=1;rounded=0;orthogonalLoop=1;jettySize=auto;html=1;fontSize=12;startSize=8;endSize=8;" edge="1" parent="WIyWlLk6GJQsqaUBKTNV-1" source="WIyWlLk6GJQsqaUBKTNV-3" target="7dVqmLgqVfzrDcxjJTKj-0">
          <mxGeometry relative="1" as="geometry" />
        </mxCell>
        <mxCell id="WIyWlLk6GJQsqaUBKTNV-3" value="First player starts" style="rounded=1;whiteSpace=wrap;html=1;fontSize=12;glass=0;strokeWidth=1;shadow=0;" parent="WIyWlLk6GJQsqaUBKTNV-1" vertex="1">
          <mxGeometry x="160" y="80" width="120" height="40" as="geometry" />
        </mxCell>
        <mxCell id="7dVqmLgqVfzrDcxjJTKj-3" value="" style="edgeStyle=none;curved=1;rounded=0;orthogonalLoop=1;jettySize=auto;html=1;fontSize=12;startSize=8;endSize=8;" edge="1" parent="WIyWlLk6GJQsqaUBKTNV-1" source="7dVqmLgqVfzrDcxjJTKj-0" target="7dVqmLgqVfzrDcxjJTKj-2">
          <mxGeometry relative="1" as="geometry" />
        </mxCell>
        <mxCell id="xlfpI8PTqw_S2Tq07FQR-6" value="" style="edgeStyle=none;curved=1;rounded=0;orthogonalLoop=1;jettySize=auto;html=1;fontSize=12;startSize=8;endSize=8;" edge="1" parent="WIyWlLk6GJQsqaUBKTNV-1" source="7dVqmLgqVfzrDcxjJTKj-0" target="7dVqmLgqVfzrDcxjJTKj-2">
          <mxGeometry relative="1" as="geometry" />
        </mxCell>
        <mxCell id="7dVqmLgqVfzrDcxjJTKj-0" value="Roll dice" style="whiteSpace=wrap;html=1;rounded=1;glass=0;strokeWidth=1;shadow=0;fontSize=16;" vertex="1" parent="WIyWlLk6GJQsqaUBKTNV-1">
          <mxGeometry x="410" y="75" width="100" height="50" as="geometry" />
        </mxCell>
        <mxCell id="xlfpI8PTqw_S2Tq07FQR-1" value="" style="edgeStyle=none;curved=1;rounded=0;orthogonalLoop=1;jettySize=auto;html=1;fontSize=12;startSize=8;endSize=8;" edge="1" parent="WIyWlLk6GJQsqaUBKTNV-1" source="7dVqmLgqVfzrDcxjJTKj-2" target="xlfpI8PTqw_S2Tq07FQR-0">
          <mxGeometry relative="1" as="geometry" />
        </mxCell>
        <mxCell id="xlfpI8PTqw_S2Tq07FQR-7" value="" style="edgeStyle=none;curved=1;rounded=0;orthogonalLoop=1;jettySize=auto;html=1;fontSize=12;startSize=8;endSize=8;" edge="1" parent="WIyWlLk6GJQsqaUBKTNV-1" source="7dVqmLgqVfzrDcxjJTKj-2" target="xlfpI8PTqw_S2Tq07FQR-0">
          <mxGeometry relative="1" as="geometry" />
        </mxCell>
        <mxCell id="7dVqmLgqVfzrDcxjJTKj-2" value="Generate random numbers 1-6" style="whiteSpace=wrap;html=1;rounded=1;glass=0;strokeWidth=1;shadow=0;fontSize=16;" vertex="1" parent="WIyWlLk6GJQsqaUBKTNV-1">
          <mxGeometry x="630" y="75" width="100" height="55" as="geometry" />
        </mxCell>
        <mxCell id="xlfpI8PTqw_S2Tq07FQR-3" value="No&amp;nbsp;" style="edgeStyle=none;curved=1;rounded=0;orthogonalLoop=1;jettySize=auto;html=1;fontSize=12;startSize=8;endSize=8;" edge="1" parent="WIyWlLk6GJQsqaUBKTNV-1" source="xlfpI8PTqw_S2Tq07FQR-0" target="xlfpI8PTqw_S2Tq07FQR-2">
          <mxGeometry relative="1" as="geometry" />
        </mxCell>
        <mxCell id="xlfpI8PTqw_S2Tq07FQR-5" value="Yes" style="edgeStyle=none;curved=1;rounded=0;orthogonalLoop=1;jettySize=auto;html=1;fontSize=12;startSize=8;endSize=8;" edge="1" parent="WIyWlLk6GJQsqaUBKTNV-1" source="xlfpI8PTqw_S2Tq07FQR-0" target="xlfpI8PTqw_S2Tq07FQR-4">
          <mxGeometry relative="1" as="geometry" />
        </mxCell>
        <mxCell id="xlfpI8PTqw_S2Tq07FQR-0" value="Dice number = 1" style="whiteSpace=wrap;html=1;rounded=1;glass=0;strokeWidth=1;shadow=0;fontSize=16;arcSize=0;" vertex="1" parent="WIyWlLk6GJQsqaUBKTNV-1">
          <mxGeometry x="850" y="75" width="100" height="55" as="geometry" />
        </mxCell>
        <mxCell id="xlfpI8PTqw_S2Tq07FQR-12" value="" style="edgeStyle=none;curved=1;rounded=0;orthogonalLoop=1;jettySize=auto;html=1;fontSize=12;startSize=8;endSize=8;" edge="1" parent="WIyWlLk6GJQsqaUBKTNV-1" source="xlfpI8PTqw_S2Tq07FQR-2" target="xlfpI8PTqw_S2Tq07FQR-11">
          <mxGeometry relative="1" as="geometry" />
        </mxCell>
        <mxCell id="xlfpI8PTqw_S2Tq07FQR-2" value="Add dice to base score" style="whiteSpace=wrap;html=1;rounded=1;glass=0;strokeWidth=1;shadow=0;fontSize=16;arcSize=0;" vertex="1" parent="WIyWlLk6GJQsqaUBKTNV-1">
          <mxGeometry x="1070" y="75" width="100" height="55" as="geometry" />
        </mxCell>
        <mxCell id="xlfpI8PTqw_S2Tq07FQR-4" value="Score= 0" style="whiteSpace=wrap;html=1;rounded=1;glass=0;strokeWidth=1;shadow=0;fontSize=16;arcSize=0;" vertex="1" parent="WIyWlLk6GJQsqaUBKTNV-1">
          <mxGeometry x="850" y="250" width="100" height="55" as="geometry" />
        </mxCell>
        <mxCell id="xlfpI8PTqw_S2Tq07FQR-16" value="" style="edgeStyle=none;curved=1;rounded=0;orthogonalLoop=1;jettySize=auto;html=1;fontSize=12;startSize=8;endSize=8;" edge="1" parent="WIyWlLk6GJQsqaUBKTNV-1" source="xlfpI8PTqw_S2Tq07FQR-11" target="xlfpI8PTqw_S2Tq07FQR-15">
          <mxGeometry relative="1" as="geometry" />
        </mxCell>
        <mxCell id="xlfpI8PTqw_S2Tq07FQR-11" value="Want to roll again&amp;nbsp;" style="whiteSpace=wrap;html=1;rounded=1;glass=0;strokeWidth=1;shadow=0;fontSize=16;arcSize=0;" vertex="1" parent="WIyWlLk6GJQsqaUBKTNV-1">
          <mxGeometry x="1070" y="250" width="100" height="55" as="geometry" />
        </mxCell>
        <mxCell id="xlfpI8PTqw_S2Tq07FQR-15" value="Yes" style="ellipse;whiteSpace=wrap;html=1;fontSize=16;rounded=1;glass=0;strokeWidth=1;shadow=0;arcSize=0;" vertex="1" parent="WIyWlLk6GJQsqaUBKTNV-1">
          <mxGeometry x="1080" y="412.5" width="80" height="80" as="geometry" />
        </mxCell>
      </root>
    </mxGraphModel>
  </diagram>
  <diagram id="77R9YPIZmjEhjFvSouUy" name="Page-2">
    <mxGraphModel dx="585" dy="918" grid="0" gridSize="10" guides="1" tooltips="1" connect="1" arrows="1" fold="1" page="0" pageScale="1" pageWidth="827" pageHeight="1169" math="0" shadow="0">
      <root>
        <mxCell id="0" />
        <mxCell id="1" parent="0" />
      </root>
    </mxGraphModel>
  </diagram>
</mxfile>
